<mxfile host="app.diagrams.net" modified="2023-11-22T06:30:19.193Z" agent="Mozilla/5.0 (iPad; CPU OS 17_0 like Mac OS X) AppleWebKit/605.1.15 (KHTML, like Gecko) CriOS/119.0.6045.169 Mobile/15E148 Safari/604.1" version="22.1.3" etag="QdKvd46A1U2CiwKhC3sT" type="github">
  <diagram name="第 1 页" id="mw4aYXoV69KiIhLAJzBn">
    <mxGraphModel>
      <root>
        <mxCell id="0" />
        <mxCell id="1" parent="0" />
      </root>
    </mxGraphModel>
  </diagram>
</mxfile>
